<svg width="1118" height="249" viewBox="0 0 1118 249" fill="none" xmlns="http://www.w3.org/2000/svg">
<path d="M93.8379 54.2189C97.4333 -5.87528 167.8 -23.8522 154.959 112.772" stroke="#884194" stroke-width="16"/>
<path d="M53.4444 96.6719C13.4937 51.6366 50.5389 -10.8317 138.067 94.856" stroke="#884194" stroke-width="16"/>
<path d="M53.3561 154.912C-6.73807 151.317 -24.715 80.9501 111.909 93.7907" stroke="#884194" stroke-width="16"/>
<path d="M95.7149 196.446C50.6796 236.397 -11.7887 199.352 93.899 111.823" stroke="#884194" stroke-width="16"/>
<path d="M153.955 194.952C150.36 255.046 79.993 273.023 92.8337 136.399" stroke="#884194" stroke-width="16"/>
<path d="M195.488 153.148C235.439 198.183 198.394 260.652 110.865 154.964" stroke="#884194" stroke-width="16"/>
<path d="M195.021 94.2817C255.115 97.8771 273.092 168.244 136.468 155.403" stroke="#884194" stroke-width="16"/>
<path d="M152.19 54.4014C197.226 14.4508 259.694 51.4959 154.006 139.024" stroke="#884194" stroke-width="16"/>
<circle cx="124.142" cy="125.099" r="35.1718" stroke="#884194" stroke-width="18"/>
<path d="M271.2 180V64.8H286.32L328.08 151.44L369.6 64.8H384.88V179.92H369.04V101.12L331.84 180H324.24L286.96 101.12V180H271.2ZM437.614 182.4C429.027 182.4 421.48 180.533 414.974 176.8C408.52 173.013 403.48 167.76 399.854 161.04C396.28 154.267 394.494 146.427 394.494 137.52C394.494 128.08 396.254 119.893 399.774 112.96C403.347 106.027 408.307 100.667 414.654 96.88C421 93.0933 428.387 91.2 436.814 91.2C445.614 91.2 453.107 93.2533 459.294 97.36C465.48 101.413 470.094 107.2 473.134 114.72C476.227 122.24 477.454 131.173 476.814 141.52H460.094V135.44C459.987 125.413 458.067 118 454.334 113.2C450.654 108.4 445.027 106 437.454 106C429.08 106 422.787 108.64 418.574 113.92C414.36 119.2 412.254 126.827 412.254 136.8C412.254 146.293 414.36 153.653 418.574 158.88C422.787 164.053 428.867 166.64 436.814 166.64C442.04 166.64 446.547 165.467 450.334 163.12C454.174 160.72 457.16 157.307 459.294 152.88L475.694 158.08C472.334 165.813 467.24 171.813 460.414 176.08C453.587 180.293 445.987 182.4 437.614 182.4ZM406.814 141.52V128.48H468.494V141.52H406.814ZM488.363 180V62.4H505.083V180H488.363ZM558.626 182.4C549.986 182.4 542.493 180.453 536.146 176.56C529.8 172.667 524.893 167.307 521.426 160.48C518.013 153.6 516.306 145.68 516.306 136.72C516.306 127.707 518.066 119.787 521.586 112.96C525.106 106.08 530.04 100.747 536.386 96.96C542.733 93.12 550.146 91.2 558.626 91.2C567.266 91.2 574.76 93.1467 581.106 97.04C587.453 100.933 592.36 106.293 595.826 113.12C599.293 119.947 601.026 127.813 601.026 136.72C601.026 145.733 599.266 153.68 595.746 160.56C592.28 167.387 587.373 172.747 581.026 176.64C574.68 180.48 567.213 182.4 558.626 182.4ZM558.626 166.64C566.893 166.64 573.053 163.867 577.106 158.32C581.213 152.72 583.266 145.52 583.266 136.72C583.266 127.707 581.186 120.507 577.026 115.12C572.92 109.68 566.786 106.96 558.626 106.96C553.026 106.96 548.413 108.24 544.786 110.8C541.16 113.307 538.466 116.8 536.706 121.28C534.946 125.707 534.066 130.853 534.066 136.72C534.066 145.787 536.146 153.04 540.306 158.48C544.466 163.92 550.573 166.64 558.626 166.64ZM644.926 182.4C636.873 182.4 629.913 180.4 624.046 176.4C618.233 172.4 613.726 166.96 610.526 160.08C607.38 153.147 605.806 145.36 605.806 136.72C605.806 128.027 607.406 120.267 610.606 113.44C613.806 106.56 618.34 101.147 624.206 97.2C630.126 93.2 637.14 91.2 645.246 91.2C653.406 91.2 660.26 93.2 665.806 97.2C671.406 101.147 675.62 106.56 678.446 113.44C681.326 120.32 682.766 128.08 682.766 136.72C682.766 145.36 681.326 153.12 678.446 160C675.566 166.88 671.326 172.347 665.726 176.4C660.126 180.4 653.193 182.4 644.926 182.4ZM647.246 167.28C652.74 167.28 657.22 165.973 660.686 163.36C664.153 160.747 666.686 157.147 668.286 152.56C669.886 147.973 670.686 142.693 670.686 136.72C670.686 130.747 669.86 125.467 668.206 120.88C666.606 116.293 664.1 112.72 660.686 110.16C657.326 107.6 653.033 106.32 647.806 106.32C642.26 106.32 637.7 107.68 634.126 110.4C630.553 113.12 627.886 116.773 626.126 121.36C624.42 125.947 623.566 131.067 623.566 136.72C623.566 142.427 624.42 147.6 626.126 152.24C627.886 156.827 630.5 160.48 633.966 163.2C637.486 165.92 641.913 167.28 647.246 167.28ZM670.686 180V117.84H668.766V64.8H685.566V180H670.686ZM711.63 218.4L728.35 172.88L728.59 186.32L690.91 93.6H708.35L736.51 165.2H731.39L758.27 93.6H775.23L727.55 218.4H711.63ZM779.763 180V64.8H794.883L836.643 151.44L878.163 64.8H893.443V179.92H877.603V101.12L840.403 180H832.803L795.523 101.12V180H779.763ZM909.456 79.44V63.2H926.176V79.44H909.456ZM909.456 180V93.6H926.176V180H909.456ZM1002.84 180V137.52C1002.84 134.16 1002.55 130.72 1001.96 127.2C1001.43 123.627 1000.36 120.32 998.76 117.28C997.213 114.24 995 111.787 992.12 109.92C989.293 108.053 985.587 107.12 981 107.12C978.013 107.12 975.187 107.627 972.52 108.64C969.853 109.6 967.507 111.173 965.48 113.36C963.507 115.547 961.933 118.427 960.76 122C959.64 125.573 959.08 129.92 959.08 135.04L948.68 131.12C948.68 123.28 950.147 116.373 953.08 110.4C956.013 104.373 960.227 99.68 965.72 96.32C971.213 92.96 977.853 91.28 985.64 91.28C991.613 91.28 996.627 92.24 1000.68 94.16C1004.73 96.08 1008.01 98.6133 1010.52 101.76C1013.08 104.853 1015.03 108.24 1016.36 111.92C1017.69 115.6 1018.6 119.2 1019.08 122.72C1019.56 126.24 1019.8 129.333 1019.8 132V180H1002.84ZM942.12 180V93.6H957.08V118.56H959.08V180H942.12ZM1065.86 182.4C1057.81 182.4 1050.85 180.4 1044.98 176.4C1039.17 172.4 1034.66 166.96 1031.46 160.08C1028.32 153.147 1026.74 145.36 1026.74 136.72C1026.74 128.027 1028.34 120.267 1031.54 113.44C1034.74 106.56 1039.28 101.147 1045.14 97.2C1051.06 93.2 1058.08 91.2 1066.18 91.2C1074.34 91.2 1081.2 93.2 1086.74 97.2C1092.34 101.147 1096.56 106.56 1099.38 113.44C1102.26 120.32 1103.7 128.08 1103.7 136.72C1103.7 145.36 1102.26 153.12 1099.38 160C1096.5 166.88 1092.26 172.347 1086.66 176.4C1081.06 180.4 1074.13 182.4 1065.86 182.4ZM1068.18 167.28C1073.68 167.28 1078.16 165.973 1081.62 163.36C1085.09 160.747 1087.62 157.147 1089.22 152.56C1090.82 147.973 1091.62 142.693 1091.62 136.72C1091.62 130.747 1090.8 125.467 1089.14 120.88C1087.54 116.293 1085.04 112.72 1081.62 110.16C1078.26 107.6 1073.97 106.32 1068.74 106.32C1063.2 106.32 1058.64 107.68 1055.06 110.4C1051.49 113.12 1048.82 116.773 1047.06 121.36C1045.36 125.947 1044.5 131.067 1044.5 136.72C1044.5 142.427 1045.36 147.6 1047.06 152.24C1048.82 156.827 1051.44 160.48 1054.9 163.2C1058.42 165.92 1062.85 167.28 1068.18 167.28ZM1091.62 180V117.84H1089.7V64.8H1106.5V180H1091.62Z" fill="#884194"/>
</svg>
